<?xml version="1.0" encoding="UTF-8" standalone="no"?>
<svg
   height="48px"
   viewBox="0 -960 960 960"
   width="48px"
   fill="#1f1f1f"
   version="1.1"
   id="svg1"
   sodipodi:docname="wifi_find_48dp_1F1F1F_FILL1_wght500_GRAD0_opsz48.svg"
   inkscape:version="1.4.2 (ebf0e940d0, 2025-05-08)"
   xmlns:inkscape="http://www.inkscape.org/namespaces/inkscape"
   xmlns:sodipodi="http://sodipodi.sourceforge.net/DTD/sodipodi-0.dtd"
   xmlns="http://www.w3.org/2000/svg"
   xmlns:svg="http://www.w3.org/2000/svg">
  <defs
     id="defs1" />
  <sodipodi:namedview
     id="namedview1"
     pagecolor="#ffffff"
     bordercolor="#000000"
     borderopacity="0.25"
     inkscape:showpageshadow="2"
     inkscape:pageopacity="0.0"
     inkscape:pagecheckerboard="0"
     inkscape:deskcolor="#d1d1d1"
     inkscape:zoom="18.375"
     inkscape:cx="24"
     inkscape:cy="23.972789"
     inkscape:window-width="2494"
     inkscape:window-height="1371"
     inkscape:window-x="2626"
     inkscape:window-y="32"
     inkscape:window-maximized="1"
     inkscape:current-layer="svg1" />
  <path
     d="M 480,-131.51 0,-625.14 q 94.52,-94.2 218.76,-148.77 124.24,-54.58 261.24,-54.58 137,0 261.14,54.34 124.14,54.34 218.86,148.77 l -96.04,97.96 q -27,-47.24 -75.48,-77.6 Q 740,-635.38 680,-635.38 q -88,0 -149,61 -61,61 -61,149 0,61.63 31.65,110.09 31.65,48.45 82.52,76.02 z m 391.04,-60.91 -109.24,-109 q -17.76,12.52 -38.64,19.28 -20.88,6.76 -43.16,6.76 -62,0 -106,-44 -44,-44 -44,-106 0,-62 44,-106 44,-44 106,-44 62,0 106,44 44,44 44,106 0,23 -6.38,43.76 -6.38,20.76 -19.66,34.28 l 111,111 z M 680,-338.01 q 35.8,0 61.59,-25.78 25.78,-25.79 25.78,-61.59 0,-35.8 -25.78,-61.59 -25.79,-25.78 -61.59,-25.78 -35.8,0 -61.59,25.78 -25.78,25.79 -25.78,61.59 0,35.8 25.78,61.59 25.79,25.78 61.59,25.78 z"
     id="path1"
     style="fill:#000000" />
</svg>
